<svg width="48" height="62" viewBox="0 0 48 62" fill="none" xmlns="http://www.w3.org/2000/svg">
<g clip-path="url(#clip0_20_5)">
<path d="M22.717 59.504C21.6077 59.504 20.797 59.12 20.285 58.352C19.8583 57.6693 19.645 56.9867 19.645 56.304C19.645 54.9387 20.2423 53.5307 21.437 52.08C21.8637 51.568 22.461 50.8853 23.229 50.032C23.997 49.0933 24.5517 48.368 24.893 47.856C23.7837 46.32 22.2903 44.912 20.413 43.632C18.5357 42.352 16.701 40.7307 14.909 38.768C13.2877 36.976 11.9223 34.8 10.813 32.24C9.70367 29.5947 9.149 27.0773 9.149 24.688C9.149 21.872 9.789 19.184 11.069 16.624C12.349 14.064 13.9277 11.8453 15.805 9.968C17.853 7.92 20.1143 6.29866 22.589 5.104C25.0637 3.824 27.6237 3.184 30.269 3.184C32.061 3.184 33.8103 3.61066 35.517 4.464C37.2237 5.31733 38.077 6.72533 38.077 8.688C38.077 10.992 37.565 12.144 36.541 12.144C36.1143 12.144 35.8157 11.7173 35.645 10.864C35.5597 10.4373 35.517 10.0107 35.517 9.584C35.517 9.072 35.517 8.73066 35.517 8.56C35.517 7.70667 35.133 6.98133 34.365 6.384C33.597 5.70133 32.7437 5.36 31.805 5.36C29.8423 5.36 27.6663 6.128 25.277 7.664C22.8877 9.2 20.8823 10.992 19.261 13.04C17.6397 15.1733 16.317 17.6053 15.293 20.336C14.269 22.9813 13.757 25.5413 13.757 28.016C13.757 31.088 14.4397 33.7333 15.805 35.952C17.1703 38.1707 18.7917 40.1333 20.669 41.84C22.6317 43.5467 24.381 45.2107 25.917 46.832C26.685 45.8933 27.4957 44.9973 28.349 44.144C29.2877 43.2907 30.141 42.608 30.909 42.096C31.5917 41.6693 32.061 41.456 32.317 41.456C32.573 41.456 32.701 41.584 32.701 41.84C32.701 42.2667 32.317 42.7787 31.549 43.376C31.3783 43.5467 30.8663 44.0587 30.013 44.912C29.245 45.68 28.3063 46.6613 27.197 47.856C27.8797 48.624 28.4343 49.4347 28.861 50.288C29.2877 51.1413 29.501 52.08 29.501 53.104C29.501 54.4693 28.733 55.8773 27.197 57.328C25.661 58.7787 24.1677 59.504 22.717 59.504ZM24.125 56.048C24.7223 56.048 25.277 55.4933 25.789 54.384C26.3863 53.36 26.685 52.336 26.685 51.312C26.685 50.8 26.5997 50.3307 26.429 49.904C26.2583 49.4773 26.1303 49.2213 26.045 49.136C25.3623 49.9893 24.7223 50.928 24.125 51.952C23.613 52.8907 23.357 53.744 23.357 54.512C23.357 55.536 23.613 56.048 24.125 56.048Z" fill="#D83131"/>
<path d="M34.6191 34.6156C34.5857 34.8047 34.3466 35.055 33.9018 35.3665C33.457 35.678 33.0232 35.9264 32.6006 36.1119C32.1261 36.2232 31.9055 36.1843 31.9388 35.9952C31.9979 34.1859 32.1293 32.5194 32.333 30.9957C32.4736 29.4608 32.6606 28.0315 32.894 26.708C33.3052 24.3759 33.7814 22.4128 34.3224 20.8185C34.8116 19.1501 35.3026 17.8395 35.7956 16.8866C35.8919 16.7086 36.0347 16.6363 36.2237 16.6697C36.5389 16.7252 36.6631 16.9421 36.5964 17.3203C36.1964 19.5892 35.8186 22.2846 35.4631 25.4063C35.1076 28.528 34.8263 31.5978 34.6191 34.6156Z" fill="#CACACA"/>
</g>
<defs>
<clipPath id="clip0_20_5">
<rect width="48" height="62" fill="white"/>
</clipPath>
</defs>
</svg>
